# xmcd CD database file
#
# Track frame offsets:
#	150
#	16130
#	35913
#	54873
#	71704
#	89851
#	109219
#	125672
#	141531
#	156822
#	168840
#	183466
#	196713
#	212922
#	230629
#	245518
#
# Disc length: 3503 seconds
#
# Revision: 4
# Processed by: cddbd v1.5.2PL0 Copyright (c) Steve Scherf et al.
# Submitted via: CDex 1.51
#
DISCID=ee0dad10
DTITLE=Various Artist - Reggae Explosion One
DYEAR=2002
DGENRE=Reggae
TTITLE0=Bob Marley and the Wailers - Could You Be Loved
TTITLE1=Jimmy Cliff - Vietnam
TTITLE2=Bob Marley and the Wailers - No Woman No Cry
TTITLE3=Rockers Revange - Walking On Sunshine
TTITLE4=Third World - Try Jah Love
TTITLE5=Laid Back - Sunshine Reggae
TTITLE6=Altchia and Donna - Up Town Top Ranking
TTITLE7=Eric Clatpon - I Shot The Sheriff
TTITLE8=Bone M - Hooray Hooray It's A Holiday
TTITLE9=Desmond Decker - The Israelites
TTITLE10=Eddy Grant - Electric Avenue
TTITLE11=Johnny Nash - Tears On My Pillow
TTITLE12=Inner Circle - Rock With You
TTITLE13=Peter Tosh - Johnny Be Goode
TTITLE14=Jimmy Cliff - I See Clearly Now
TTITLE15=Typically Tropical - Barbados
EXTD=YEAR: 2002
EXTT0=
EXTT1=
EXTT2=
EXTT3=
EXTT4=
EXTT5=
EXTT6=
EXTT7=
EXTT8=
EXTT9=
EXTT10=
EXTT11=
EXTT12=
EXTT13=
EXTT14=
EXTT15=
PLAYORDER=
